{"accessors" : [{"bufferView" : 0, "byteOffset" : 0, "componentType" : 5123, "count" : 38607, "type" : "SCALAR", "max" : [23242], "min" : [0]}, {"bufferView" : 1, "byteOffset" : 0, "componentType" : 5126, "count" : 23243, "type" : "VEC3", "max" : [23514.6953125, -472.8160095214844, 2496.61376953125], "min" : [23179.357421875, -797.9744262695312, 2296.61376953125], "name" : "POSITION"}, {"bufferView" : 1, "byteOffset" : 12, "componentType" : 5126, "count" : 23243, "type" : "VEC3", "max" : [0.9999958872795105, 0.9999958872795105, 1.0000044107437134], "min" : [-0.9999958872795105, -0.9999958872795105, -1.0000044107437134], "name" : "NORMAL"}], "asset" : {"generator" : "Aspose.3D 24.6.0", "version" : "2.0"}, "buffers" : [{"uri" : "data:application/octet-stream;base64,", "byteLength" : 635056}], "bufferViews" : [{"buffer" : 0, "byteOffset" : 0, "byteLength" : 77216, "target" : 34963}, {"buffer" : 0, "byteOffset" : 77220, "byteLength" : 557832, "byteStride" : 24, "target" : 34962}], "meshes" : [{"primitives" : [{"attributes" : {"POSITION" : 1, "NORMAL" : 2}, "indices" : 0, "mode" : 4}], "name" : ""}], "nodes" : [{"mesh" : 0, "name" : ""}], "scene" : 0, "scenes" : [{"nodes" : [0]}]}