{"accessors" : [{"bufferView" : 0, "byteOffset" : 0, "componentType" : 5123, "count" : 38607, "type" : "SCALAR", "max" : [23240], "min" : [0]}, {"bufferView" : 1, "byteOffset" : 0, "componentType" : 5126, "count" : 23241, "type" : "VEC3", "max" : [13262.041015625, -8984.1787109375, 2501.140625], "min" : [12936.8828125, -9319.515625, 2301.140625], "name" : "POSITION"}, {"bufferView" : 1, "byteOffset" : 12, "componentType" : 5126, "count" : 23241, "type" : "VEC3", "max" : [0.9999958872795105, 0.9999958872795105, 1.0000044107437134], "min" : [-0.9999958872795105, -0.9999958872795105, -1.0000044107437134], "name" : "NORMAL"}], "asset" : {"generator" : "Aspose.3D 24.6.0", "version" : "2.0"}, "buffers" : [{"uri" : "data:application/octet-stream;base64,", "byteLength" : 635008}], "bufferViews" : [{"buffer" : 0, "byteOffset" : 0, "byteLength" : 77216, "target" : 34963}, {"buffer" : 0, "byteOffset" : 77220, "byteLength" : 557784, "byteStride" : 24, "target" : 34962}], "meshes" : [{"primitives" : [{"attributes" : {"POSITION" : 1, "NORMAL" : 2}, "indices" : 0, "mode" : 4}], "name" : ""}], "nodes" : [{"mesh" : 0, "name" : ""}], "scene" : 0, "scenes" : [{"nodes" : [0]}]}