{"scene":0,"asset":{"generator":"ImageToStl.com","version":"2.0"},"scenes":[{"name":"Scene","nodes":[0]}],"nodes":[{"name":"Node0","children":[1,2,3,4,5,6,7,8,9]},{"name":"Node1","mesh":0},{"name":"Node2","mesh":1},{"name":"Node3","mesh":2},{"name":"Node4","mesh":3},{"name":"Node5","mesh":4},{"name":"Node6","mesh":5},{"name":"Node7","mesh":6},{"name":"Node8","mesh":7},{"name":"Node9","mesh":8}],"materials":[{"name":"#CCCCCCCC","pbrMetallicRoughness":{"baseColorFactor":[0.8,0.8,0.8,0.8],"metallicFactor":0.0,"roughnessFactor":0.4},"alphaMode":"BLEND","doubleSided":true}],"meshes":[{"name":"Mesh0","primitives":[{"indices":1,"material":0,"attributes":{"POSITION":0}}]},{"name":"Mesh0","primitives":[{"indices":3,"material":0,"attributes":{"POSITION":2}}]},{"name":"Mesh0","primitives":[{"indices":5,"material":0,"attributes":{"POSITION":4}}]},{"name":"Mesh0","primitives":[{"indices":7,"material":0,"attributes":{"POSITION":6}}]},{"name":"Mesh0","primitives":[{"indices":9,"material":0,"attributes":{"POSITION":8}}]},{"name":"Mesh0","primitives":[{"indices":11,"material":0,"attributes":{"POSITION":10}}]},{"name":"Mesh0","primitives":[{"indices":13,"material":0,"attributes":{"POSITION":12}}]},{"name":"Mesh0","primitives":[{"indices":15,"material":0,"attributes":{"POSITION":14}}]},{"name":"Mesh0","primitives":[{"indices":17,"material":0,"attributes":{"POSITION":16}}]}],"accessors":[{"bufferView":0,"componentType":5126,"count":4,"type":"VEC3","min":[9253.769,-249.5658,908.11566],"max":[9253.817,-237.75487,982.9188]},{"bufferView":1,"componentType":5123,"count":6,"type":"SCALAR"},{"bufferView":2,"componentType":5126,"count":4,"type":"VEC3","min":[9253.769,-249.5658,982.9188],"max":[9257.754,-237.73859,982.9188]},{"bufferView":3,"componentType":5123,"count":6,"type":"SCALAR"},{"bufferView":4,"componentType":5126,"count":4,"type":"VEC3","min":[9194.714,-249.81,904.17865],"max":[9194.763,-237.99908,908.11566]},{"bufferView":5,"componentType":5123,"count":6,"type":"SCALAR"},{"bufferView":6,"componentType":5126,"count":4,"type":"VEC3","min":[9257.705,-249.54951,908.11566],"max":[9257.754,-237.73859,982.9188]},{"bufferView":7,"componentType":5123,"count":6,"type":"SCALAR"},{"bufferView":8,"componentType":5126,"count":4,"type":"VEC3","min":[9194.714,-249.81,908.11566],"max":[9253.817,-237.75487,908.11566]},{"bufferView":9,"componentType":5123,"count":6,"type":"SCALAR"},{"bufferView":10,"componentType":5126,"count":7,"type":"VEC3","min":[9194.714,-237.99908,904.17865],"max":[9257.705,-237.73859,982.9188]},{"bufferView":11,"componentType":5123,"count":15,"type":"SCALAR"},{"bufferView":12,"componentType":5126,"count":4,"type":"VEC3","min":[9257.705,-249.54951,904.17865],"max":[9257.754,-237.73859,908.11566]},{"bufferView":13,"componentType":5123,"count":6,"type":"SCALAR"},{"bufferView":14,"componentType":5126,"count":7,"type":"VEC3","min":[9194.763,-249.81,904.17865],"max":[9257.754,-249.54951,982.9188]},{"bufferView":15,"componentType":5123,"count":15,"type":"SCALAR"},{"bufferView":16,"componentType":5126,"count":4,"type":"VEC3","min":[9194.714,-249.81,904.17865],"max":[9257.754,-237.73859,904.17865]},{"bufferView":17,"componentType":5123,"count":6,"type":"SCALAR"}],"bufferViews":[{"target":34962,"buffer":0,"byteLength":48,"byteOffset":0},{"target":34963,"buffer":0,"byteLength":12,"byteOffset":48},{"target":34962,"buffer":0,"byteLength":48,"byteOffset":60},{"target":34963,"buffer":0,"byteLength":12,"byteOffset":108},{"target":34962,"buffer":0,"byteLength":48,"byteOffset":120},{"target":34963,"buffer":0,"byteLength":12,"byteOffset":168},{"target":34962,"buffer":0,"byteLength":48,"byteOffset":180},{"target":34963,"buffer":0,"byteLength":12,"byteOffset":228},{"target":34962,"buffer":0,"byteLength":48,"byteOffset":240},{"target":34963,"buffer":0,"byteLength":12,"byteOffset":288},{"target":34962,"buffer":0,"byteLength":84,"byteOffset":300},{"target":34963,"buffer":0,"byteLength":30,"byteOffset":384},{"target":34962,"buffer":0,"byteLength":48,"byteOffset":416},{"target":34963,"buffer":0,"byteLength":12,"byteOffset":464},{"target":34962,"buffer":0,"byteLength":84,"byteOffset":476},{"target":34963,"buffer":0,"byteLength":30,"byteOffset":560},{"target":34962,"buffer":0,"byteLength":48,"byteOffset":592},{"target":34963,"buffer":0,"byteLength":12,"byteOffset":640}],"buffers":[{"byteLength":652,"uri":"data:application/octet-stream;base64,"}]}